<?xml version="1.0" encoding="UTF-8"?>
<!DOCTYPE svg  PUBLIC '-//W3C//DTD SVG 1.1//EN'  'http://www.w3.org/Graphics/SVG/1.1/DTD/svg11.dtd'>
<svg width="800px" height="800px" version="1.1" viewBox="0 0 512 512" xml:space="preserve" xmlns="http://www.w3.org/2000/svg">

	<path class="st0" d="m421.07 221.72c-0.578 11.719-9.469 26.188-23.797 40.094v183.25c-0.016 4.719-1.875 8.719-5.016 11.844-3.156 3.063-7.25 4.875-12.063 4.906h-298.64c-4.781-0.031-8.891-1.844-12.047-4.906-3.141-3.125-4.984-7.125-5-11.844v-292.84c0.016-4.703 1.859-8.719 5-11.844 3.156-3.063 7.266-4.875 12.047-4.906h158.61c12.828-16.844 27.781-34.094 44.719-49.906 0.078-0.094 0.141-0.188 0.219-0.281h-203.55c-18.75-0.016-35.984 7.531-48.25 19.594-12.328 12.063-20.016 28.938-20 47.344v292.84c-0.016 18.406 7.672 35.313 20 47.344 12.265 12.061 29.5 19.592 48.25 19.592h298.64c18.781 0 36.016-7.531 48.281-19.594 12.297-12.031 20-28.938 19.984-47.344v-241.59s-0.125-0.156-0.328-0.313c-7.766 6.657-16.813 13-27.063 18.563z"/>
	<path class="st0" d="m498.06 0s-15.688 23.438-118.16 58.109c-104.48 35.36-168.8 179.2-168.8 179.2-15.484 29.469-76.688 151.91-76.688 151.91-16.859 31.625 14.031 50.313 32.156 17.656 34.734-62.688 57.156-119.97 109.97-121.59 77.047-2.375 129.73-69.656 113.16-66.531-21.813 9.5-69.906 0.719-41.578-3.656 68-5.453 109.91-56.563 96.25-60.031-24.109 9.281-46.594 0.469-51-2.188 120.02-14.594 104.69-152.88 104.69-152.88z"/>

</svg>
