<svg xmlns="http://www.w3.org/2000/svg" viewBox="0 0 320 360" height="360" width="320"><g><svg/></g><g><svg viewBox="0 0 320 360" height="360" width="320"><g><path transform="translate(-21.67367,-1.67367) scale(3.63347,3.63347)" d="M87.84 28.16c-3.42-5.92-31.01-21.84-37.84-21.84-6.83 0-34.41 15.92-37.84 21.84-3.19 5.51-3.19 38.18 0 43.69 3.43 5.91 31.01 21.83 37.84 21.83 6.83 0 34.42-15.92 37.84-21.84 3.19-5.51 3.19-38.17 0-43.68zM91.14 26.25c-3.98-6.88-32.88-23.75-41.14-23.75-8.26 0-37.16 16.87-41.14 23.75-3.86 6.66-3.86 40.84 0 47.5 3.98 6.88 32.88 23.75 41.14 23.75 8.26 0 37.16-16.87 41.14-23.74 3.86-6.67 3.86-40.85 0-47.51zM88.78 72.39c-3.51 6.07-31.78 22.38-38.78 22.38-7 0-35.27-16.32-38.78-22.39-3.27-5.65-3.27-39.13 0-44.78 3.51-6.06 31.78-22.37 38.78-22.37 7 0 35.27 16.32 38.78 22.38 3.27 5.65 3.27 39.13 0 44.78z" fill="#ee3e38" fill-rule="nonzero" stroke="none" stroke-width="1" stroke-linecap="butt" stroke-linejoin="miter" stroke-miterlimit="10" stroke-dasharray="" stroke-dashoffset="0" font-family="none" font-weight="none" font-size="none" text-anchor="none" style="mix-blend-mode: normal" data-fill-palette-color="tertiary"/></g><g transform="matrix(1,0,0,1,48.000000000000014,97.42344619179514)"><svg viewBox="0 0 223.99999999999997 165.15310761640973" height="165.15310761640973" width="223.99999999999997"><g><svg viewBox="0 0 223.99999999999997 165.15310761640973" height="165.15310761640973" width="223.99999999999997"><g transform="matrix(1,0,0,1,0,111.18707678285864)"><svg viewBox="0 0 223.99999999999997 53.96603083355108" height="53.96603083355108" width="223.99999999999997"><g id="textblocktransform"><svg viewBox="0 0 223.99999999999997 53.96603083355108" height="53.96603083355108" width="223.99999999999997" id="textblock"><g><svg viewBox="0 0 223.99999999999997 53.96603083355108" height="53.96603083355108" width="223.99999999999997"><g transform="matrix(1,0,0,1,0,0)"><svg width="223.99999999999997" viewBox="3 -35.25 191.33 46.1" height="53.96603083355108" data-palette-color="#ffffff"><path d="M24.7 0L18.3 0 18.3-15.5 9.35-15.5 9.35 0 3 0 3-34.55 9.35-34.55 9.35-20.6 18.3-20.6 18.3-34.55 24.7-34.55 24.7 0ZM49.35-13.85Q49.35-13.4 49.2-11.3L49.2-11.3 35.55-11.3Q35.75-7.2 36.97-5.58 38.2-3.95 40.45-3.95L40.45-3.95Q42-3.95 43.25-4.48 44.5-5 45.95-6.15L45.95-6.15 48.5-2.65Q45 0.75 40.1 0.75L40.1 0.75Q34.9 0.75 32.12-2.85 29.35-6.45 29.35-13L29.35-13Q29.35-19.55 32-23.35 34.65-27.15 39.5-27.15L39.5-27.15Q44.15-27.15 46.75-23.78 49.35-20.4 49.35-13.85L49.35-13.85ZM43.35-15.3L43.35-15.65Q43.35-19.4 42.45-21.13 41.55-22.85 39.55-22.85L39.55-22.85Q37.7-22.85 36.72-21.18 35.75-19.5 35.55-15.3L35.55-15.3 43.35-15.3ZM70.55-6.4Q70.55-5.1 70.9-4.48 71.25-3.85 72.05-3.45L72.05-3.45 70.8 0.65Q68.75 0.4 67.52-0.45 66.3-1.3 65.7-3.05L65.7-3.05Q63.4 0.75 59.25 0.75L59.25 0.75Q55.95 0.75 54-1.48 52.05-3.7 52.05-7.4L52.05-7.4Q52.05-11.7 54.72-13.95 57.4-16.2 62.5-16.2L62.5-16.2 64.55-16.2 64.55-18.05Q64.55-20.55 63.67-21.58 62.8-22.6 60.84-22.6L60.84-22.6Q58.5-22.6 55-21.3L55-21.3 53.59-25.3Q55.59-26.2 57.75-26.68 59.9-27.15 61.84-27.15L61.84-27.15Q70.55-27.15 70.55-18.35L70.55-18.35 70.55-6.4ZM60.9-3.7Q63.3-3.7 64.55-7L64.55-7 64.55-12.55 63.09-12.55Q60.55-12.55 59.37-11.4 58.2-10.25 58.2-7.85L58.2-7.85Q58.2-5.8 58.9-4.75 59.59-3.7 60.9-3.7L60.9-3.7ZM87.99-27.1Q89.14-27.1 90.04-26.75L90.04-26.75 89.04-20.85Q88.04-21.1 87.19-21.1L87.19-21.1Q85.29-21.1 84.19-19.45 83.09-17.8 82.49-14.55L82.49-14.55 82.49 0 76.34 0 76.34-26.45 81.69-26.45 82.14-21.85Q83.99-27.1 87.99-27.1L87.99-27.1ZM104.04-5L106.19-1.2Q103.74 0.75 100.44 0.75L100.44 0.75Q96.99 0.75 95.19-1.23 93.39-3.2 93.39-6.6L93.39-6.6 93.39-22 90.29-22 90.29-26.45 93.39-26.45 93.39-32.3 99.54-33.05 99.54-26.45 104.54-26.45 103.94-22 99.54-22 99.54-6.6Q99.54-4.2 101.59-4.2L101.59-4.2Q102.24-4.2 102.74-4.38 103.24-4.55 104.04-5L104.04-5ZM117.64-35.25Q120.64-35.25 122.94-34.2 125.24-33.15 127.19-31.05L127.19-31.05 124.24-27.65Q122.69-29.05 121.21-29.75 119.74-30.45 118.09-30.45L118.09-30.45Q116.19-30.45 115.09-29.28 113.99-28.1 113.99-26.2L113.99-26.2Q113.99-24.3 115.14-23.1 116.29-21.9 119.64-20.6L119.64-20.6Q123.94-18.85 125.96-16.5 127.99-14.15 127.99-9.85L127.99-9.85Q127.99-6.9 126.64-4.48 125.29-2.05 122.76-0.65 120.24 0.75 116.89 0.75L116.89 0.75Q113.44 0.75 110.89-0.48 108.34-1.7 106.24-3.95L106.24-3.95 109.44-7.45Q111.24-5.85 112.89-5 114.54-4.15 116.49-4.15L116.49-4.15Q118.79-4.15 120.06-5.58 121.34-7 121.34-9.45L121.34-9.45Q121.34-11.6 120.21-12.98 119.09-14.35 116.04-15.5L116.04-15.5Q111.44-17.35 109.41-19.75 107.39-22.15 107.39-25.75L107.39-25.75Q107.39-28.5 108.71-30.65 110.04-32.8 112.39-34.02 114.74-35.25 117.64-35.25L117.64-35.25ZM150.64-26.45L143.64 0.1Q142.34 4.9 139.44 7.65 136.54 10.4 131.69 10.85L131.69 10.85 130.99 6.5Q134.14 5.85 135.71 4.42 137.29 3 138.19 0L138.19 0 135.89 0 129.19-26.45 135.44-26.45 139.84-4.1 144.54-26.45 150.64-26.45ZM165.88-27.15Q168.73-27.15 170.38-25.1 172.03-23.05 172.03-19.6L172.03-19.6 172.03 0 165.88 0 165.88-18.9Q165.88-20.8 165.36-21.63 164.83-22.45 163.83-22.45L163.83-22.45Q161.73-22.45 159.68-18.5L159.68-18.5 159.68 0 153.53 0 153.53-26.45 158.88-26.45 159.33-23Q160.68-25.1 162.21-26.13 163.73-27.15 165.88-27.15L165.88-27.15ZM187.08-27.15Q189.23-27.15 190.98-26.43 192.73-25.7 194.33-24.15L194.33-24.15 191.68-20.65Q190.58-21.55 189.61-21.98 188.63-22.4 187.48-22.4L187.48-22.4Q185.23-22.4 184.08-20.28 182.93-18.15 182.93-13.1L182.93-13.1Q182.93-8.2 184.11-6.2 185.28-4.2 187.48-4.2L187.48-4.2Q188.58-4.2 189.48-4.6 190.38-5 191.58-5.85L191.58-5.85 194.33-2.3Q191.13 0.75 187.18 0.75L187.18 0.75Q182.08 0.75 179.26-2.73 176.43-6.2 176.43-13L176.43-13Q176.43-17.4 177.73-20.6 179.03-23.8 181.46-25.48 183.88-27.15 187.08-27.15L187.08-27.15Z" opacity="1" transform="matrix(1,0,0,1,0,0)" fill="#ffffff" class="wordmark-text-0" data-fill-palette-color="quaternary" id="text-0"/></svg></g></svg></g></svg></g></svg></g><g transform="matrix(1,0,0,1,74.52741882322042,0)"><svg viewBox="0 0 74.94516235355914 98.44699208779724" height="98.44699208779724" width="74.94516235355914"><g><svg xmlns="http://www.w3.org/2000/svg" xmlns:xlink="http://www.w3.org/1999/xlink" version="1.1" x="0" y="0" viewBox="31.1 19.900000000000006 54.887875100060036 72.1" style="enable-background:new 0 0 99 99;" xml:space="preserve" height="98.44699208779724" width="74.94516235355914" class="icon-icon-0" data-fill-palette-color="quaternary" id="icon-0"><g fill="#ffffff" data-fill-palette-color="quaternary"><path d="M50.5 40.7c5.7 0 10.4-4.6 10.4-10.4 0-5.7-4.6-10.4-10.4-10.4-5.8 0.1-10.4 4.8-10.4 10.4C40.1 36.1 44.8 40.7 50.5 40.7z" fill="#ffffff" data-fill-palette-color="quaternary"/><path d="M57.4 80.3c-1.6-3.4-1.6-6.7 0-9.7l0.1-0.1c1.9-2.9 5.1-4.7 8.7-4.7 1.6 0 3 0.6 4.4 1.5C68.1 53.7 58.4 45.6 51 45.6c-8.4 0-19.9 10.7-19.9 28.3 0 2.2 0.7 3.9 2.2 5.4 3.1 2.9 10.4 4.3 17.8 4.3 2.6 0 5.3-0.2 7.7-0.6l-0.1-0.7C58.1 81.7 57.7 81 57.4 80.3z" fill="#ffffff" data-fill-palette-color="quaternary"/><path d="M85.1 79.9c1.2-2.5 1.2-4.9-0.1-7.1-1.4-2.2-3.7-3.6-6.6-3.6-2.1 0-4.1 1.9-5.5 3.2-1.4-1.4-3.4-3.1-5.5-3.1-2.7 0-5.1 1.4-6.5 3.5l0 0c-1.2 2.2-1.2 4.6 0 7.2 1.1 2.2 3 4.1 4.2 5.2 1.7 1.7 6.4 5.5 7.2 6.2L73 92l0.6-0.5c1-0.9 5.6-4.7 7.2-6.4C82.4 83.8 84.1 81.9 85.1 79.9z" fill="#ffffff" data-fill-palette-color="quaternary"/></g></svg></g></svg></g><g/></svg></g></svg></g></svg></g><defs/></svg>